<svg xmlns="http://www.w3.org/2000/svg" viewBox="0 0 120 160" width="120" height="160"><rect x="0.6" y="0.6" width="28.8" height="52.1" rx="2.5" fill="currentColor" opacity="0.75"/><rect x="30.6" y="0.6" width="28.8" height="52.1" rx="2.5" fill="currentColor" opacity="0.75"/><rect x="60.6" y="0.6" width="28.8" height="52.1" rx="2.5" fill="currentColor" opacity="0.75"/><rect x="90.6" y="0.6" width="28.8" height="52.1" rx="2.5" fill="currentColor" opacity="0.75"/><rect x="0.6" y="53.9" width="28.8" height="52.1" rx="2.5" fill="currentColor" opacity="0.75"/><rect x="30.6" y="53.9" width="28.8" height="52.1" rx="2.5" fill="currentColor" opacity="0.75"/><rect x="60.6" y="53.9" width="28.8" height="52.1" rx="2.5" fill="currentColor" opacity="0.75"/><rect x="90.6" y="53.9" width="28.8" height="52.1" rx="2.5" fill="currentColor" opacity="0.75"/><rect x="0.6" y="107.3" width="28.8" height="52.1" rx="2.5" fill="currentColor" opacity="0.75"/><rect x="30.6" y="107.3" width="28.8" height="52.1" rx="2.5" fill="currentColor" opacity="0.75"/><rect x="60.6" y="107.3" width="28.8" height="52.1" rx="2.5" fill="currentColor" opacity="0.75"/><rect x="90.6" y="107.3" width="28.8" height="52.1" rx="2.5" fill="currentColor" opacity="0.75"/></svg>
